<svg width="30" height="30" viewBox="0 0 30 30" fill="none" xmlns="http://www.w3.org/2000/svg">
<path d="M23.6625 10.6688H20.775V9.22501C20.775 6.03577 18.1892 3.45001 15 3.45001C11.8107 3.45001 9.22498 6.03577 9.22498 9.22501V10.6688H6.33749C5.54342 10.6688 4.89374 11.3184 4.89374 12.1125V20.775C4.89374 23.9512 7.49249 26.55 10.6687 26.55H19.3312C22.5075 26.55 25.1062 23.9512 25.1062 20.775V12.1125C25.1062 11.3184 24.4565 10.6688 23.6625 10.6688ZM12.1125 9.22501C12.1125 7.63039 13.4054 6.33751 15 6.33751C16.5946 6.33751 17.8875 7.63039 17.8875 9.22501V10.6688H12.1125V9.22501ZM22.2187 20.775C22.2187 22.3674 20.923 23.6625 19.3312 23.6625H10.6687C9.07628 23.6625 7.78123 22.3674 7.78123 20.775V13.5563H9.22498V15C9.22498 15.7969 9.87178 16.4437 10.6687 16.4437C11.4657 16.4437 12.1125 15.7969 12.1125 15V13.5563H17.8875V15C17.8875 15.7969 18.5343 16.4437 19.3312 16.4437C20.1282 16.4437 20.775 15.7969 20.775 15V13.5563H22.2187V20.775Z" fill="white"/>
</svg>
